<svg width="24" height="24" viewBox="0 0 24 24" fill="none" xmlns="http://www.w3.org/2000/svg">
  <path d="M5 4.5C5 3.67157 5.67157 3 6.5 3H17.5C18.3284 3 19 3.67157 19 4.5V8.5C19 9.32843 18.3284 10 17.5 10H6.5C5.67157 10 5 9.32843 5 8.5V4.5Z" fill="#FFFFFF"/>
  <path d="M5 15.5C5 14.6716 5.67157 14 6.5 14H17.5C18.3284 14 19 14.6716 19 15.5V19.5C19 20.3284 18.3284 21 17.5 21H6.5C5.67157 21 5 20.3284 5 19.5V15.5Z" fill="#FFFFFF"/>
  <path d="M7 6.5C7 6.22386 7.22386 6 7.5 6H9.5C9.77614 6 10 6.22386 10 6.5C10 6.77614 9.77614 7 9.5 7H7.5C7.22386 7 7 6.77614 7 6.5Z" fill="#1E1E1E"/>
  <path d="M7 17.5C7 17.2239 7.22386 17 7.5 17H9.5C9.77614 17 10 17.2239 10 17.5C10 17.7761 9.77614 18 9.5 18H7.5C7.22386 18 7 17.7761 7 17.5Z" fill="#1E1E1E"/>
  <path d="M14 11.5H10V12.5H14V11.5Z" fill="#FFFFFF"/>
</svg>
